<?xml version="1.0" encoding="utf-8"?>
<!-- Generator: Adobe Illustrator 24.0.1, SVG Export Plug-In . SVG Version: 6.00 Build 0)  -->
<svg version="1.1" id="Warstwa_1" xmlns="http://www.w3.org/2000/svg" xmlns:xlink="http://www.w3.org/1999/xlink" x="0px" y="0px"
	 viewBox="0 0 611.5 150" style="enable-background:new 0 0 611.5 150;" xml:space="preserve">
<style type="text/css">
	.st0{fill:#1E1E1C;}
	.st1{fill:#4C77BB;}
</style>
<g>
	<path class="st0" d="M71,43.5c5.3,3.6,9.3,8,12.4,14.2s4.4,13.3,4.4,21.7c0,8-1.3,15.5-4.4,21.7c-3.1,6.2-7.1,11.1-12.4,14.6
		c-5.3,3.6-11.5,5.3-18.2,5.3c-5.3,0-10.2-0.9-14.6-3.1s-7.5-5.3-9.8-8.9c-0.4,3.6-1.8,6.7-4.4,8.4c-2.7,2.2-5.8,3.1-9.8,3.1
		c-4.4,0-7.5-1.3-10.2-3.6c-2.7-2.2-4-5.3-4-9.3V18.2c0-3.6,1.3-6.7,4-9.3s6.2-3.6,10.7-3.6s7.5,1.3,10.2,3.6s4,5.3,4,8.9v32.4
		c2.2-3.6,5.8-6.2,9.8-8.4c4.4-2.2,8.9-3.1,14.2-3.1C59.5,38.6,65.7,40.4,71,43.5z M55.5,94.5c2.7-3.6,4-8.4,4-15.1
		c0-6.2-1.3-11.1-4-14.2c-2.7-3.6-6.7-4.9-11.5-4.9s-8.9,1.8-11.5,4.9c-2.7,3.6-4,8.4-4,14.6c0,6.7,1.3,11.5,4,15.1
		s6.7,5.3,11.5,5.3C48.8,99.9,52.8,98.1,55.5,94.5z"/>
	<path class="st0" d="M176.6,42.6c2.7,2.2,4,5.8,4,9.8v55.9c0,4-1.3,6.7-4,9.3c-2.7,2.2-6.2,3.6-10.7,3.6c-4,0-7.1-0.9-9.3-3.1
		c-2.7-2.2-4-4.9-4-8.4c-2.7,4-5.8,6.7-9.3,8.9c-4,2.2-8.4,3.1-13.3,3.1c-10.2,0-17.8-2.7-22.6-8.4c-4.9-5.8-7.5-14.2-7.5-25.7V52.4
		c0-4,1.3-7.5,4-9.8c2.7-2.2,6.2-3.6,10.7-3.6s8,1.3,10.7,3.6c2.7,2.2,4,5.8,4,9.8v35.5c0,7.5,3.6,11.5,10.2,11.5c4,0,7.1-1.3,9.3-4
		c2.7-2.7,3.6-6.7,3.6-11.1v-32c0-4,1.3-7.5,4-9.8c2.7-2.2,6.2-3.6,10.7-3.6C170.9,39.1,174,39.9,176.6,42.6z"/>
	<path class="st0" d="M276.9,8.9c2.7,2.2,4,5.3,4,9.3v89.6c0,4-1.3,7.5-4,9.8c-2.7,2.2-6.2,3.6-10.2,3.6c-4,0-7.1-0.9-9.8-3.1
		c-2.7-2.2-4-4.9-4.4-8.4c-2.2,4-5.8,6.7-9.8,8.9c-4.4,2.2-9.3,3.1-14.6,3.1c-6.7,0-12.9-1.8-18.2-5.3c-5.3-3.6-9.3-8.4-12.4-14.6
		S193,87.9,193,79.9s1.3-15.5,4.4-21.7s7.1-11.1,12.4-14.2c5.3-3.6,11.5-4.9,18.2-4.9c4.9,0,9.8,0.9,14.2,3.1
		c4.4,2.2,7.5,4.9,9.8,8.4V17.8c0-3.6,1.3-6.7,4-8.9c2.7-2.2,5.8-3.6,10.2-3.6S274.3,6.7,276.9,8.9z M248.5,95c2.7-3.6,4-8.4,4-15.1
		c0-6.2-1.3-11.1-4-14.6c-2.7-3.6-6.7-4.9-11.5-4.9c-4.9,0-8.9,1.8-11.5,4.9c-2.7,3.1-4,8-4,14.2c0,6.7,1.3,11.5,4,15.1
		c2.7,3.6,6.7,5.3,11.5,5.3C242.3,99.9,245.9,98.1,248.5,95z"/>
	<path class="st0" d="M300,24c-2.7-2.7-4.4-5.8-4.4-10.2c0-4,1.3-7.5,4.4-10.2c3.1-2.2,6.7-3.6,11.5-3.6s8.4,1.3,11.5,3.6
		c3.1,2.7,4.4,5.8,4.4,10.2c0,4-1.3,7.5-4.4,10.2c-2.7,2.7-6.7,4-11.5,4C306.7,27.5,303.1,26.2,300,24z M301.3,117.6
		c-2.7-2.2-4-5.3-4-9.8V52.4c0-4.4,1.3-7.5,4-9.8c2.7-2.2,6.2-3.1,10.2-3.1c4,0,7.5,0.9,10.2,3.1c2.7,2.2,4,5.3,4,9.8v55.5
		c0,4.4-1.3,7.5-4,9.8s-6.2,3.1-10.2,3.1C307.5,121.2,304,119.8,301.3,117.6z"/>
	<path class="st0" d="M361.2,116.3c-6.7-3.6-11.5-8.4-15.5-14.6c-3.6-6.2-5.3-13.8-5.3-22.2s1.8-15.5,5.3-21.7s8.9-11.1,15.1-14.2
		c6.7-3.6,14.2-4.9,23.1-4.9c8.9,0,16.4,1.8,23.1,4.9c6.7,3.6,11.5,8,15.1,14.2c3.6,6.2,5.3,13.3,5.3,21.7s-1.8,15.5-5.3,22.2
		c-3.6,6.2-8.9,11.1-15.1,14.6c-6.7,3.6-14.2,4.9-23.1,4.9C375.4,121.6,367.5,119.8,361.2,116.3z M399.4,79.9c0-13.3-5.3-20-15.5-20
		c-10.2,0-15.5,6.7-15.5,20s5.3,20,15.5,20C394.5,99.9,399.4,93.2,399.4,79.9z"/>
	<path class="st1" d="M439.7,116.7c-3.1-3.1-4.4-6.7-4.4-11.1c0-4.4,1.3-8,4.4-11.1c3.1-3.1,6.7-4.4,11.1-4.4s8,1.3,11.1,4.4
		c3.1,3.1,4.4,6.7,4.4,11.1c0,4.4-1.3,8-4.4,11.1c-3.1,3.1-6.7,4.4-11.1,4.4S442.4,119.8,439.7,116.7z"/>
	<path class="st0" d="M553.4,43.9c5.3,3.6,9.3,8.4,12.4,14.6c3.1,6.2,4.4,13.8,4.4,21.7c0,8-1.3,15.5-4.4,21.7
		c-3.1,6.2-7.1,11.1-12.4,14.2c-5.3,3.6-11.5,4.9-18.2,4.9c-4.9,0-9.8-0.9-14.2-3.1s-7.5-4.9-9.8-8.4v28c0,4-1.3,6.7-4,8.9
		s-5.8,3.6-10.2,3.6s-8-1.3-10.7-3.6s-4-5.3-4-9.3V52.4c0-4,1.3-7.1,4-9.8c2.7-2.2,5.8-3.6,10.2-3.6c4,0,7.5,0.9,9.8,3.1
		c2.7,2.2,4,4.9,4.4,8.4c2.2-4,5.8-6.7,9.8-8.9c4.4-2.2,9.3-3.1,14.6-3.1C541.9,38.6,548.1,40.4,553.4,43.9z M537.9,95
		c2.7-3.6,4-8,4-14.2c0-6.7-1.3-11.5-4-15.1c-2.7-3.6-6.7-5.3-11.5-5.3s-8.9,1.8-11.5,5.3c-2.7,3.6-4,8.4-4,15.1
		c0,6.2,1.3,11.1,4,14.6s6.7,4.9,11.5,4.9C531.2,99.9,535.2,98.1,537.9,95z"/>
	<path class="st0" d="M587.1,117.6c-2.7-2.2-4-5.3-4-9.8V18.6c0-4.4,1.3-7.5,4-10.2c2.7-2.2,6.2-3.6,10.2-3.6c4,0,7.5,1.3,10.2,3.6
		s4,5.8,4,10.2v89.2c0,4.4-1.3,7.5-4,9.8s-6.2,3.1-10.2,3.1C593.3,121.2,589.8,119.8,587.1,117.6z"/>
</g>
</svg>
